HIERARCHY
ROOT SpineBase
{
  OFFSET 0.000000 0.000000 0.000000
  CHANNELS 6 Xposition Yposition Zposition Zrotation Xrotation Yrotation
  JOINT SpineMid
  {
    OFFSET 0.000000 28.475081 0.000000
    CHANNELS 3 Zrotation Xrotation Yrotation
    JOINT SpineShoulder
    {
      OFFSET -0.291747 21.287728 -0.718944
      CHANNELS 3 Zrotation Xrotation Yrotation
      JOINT Neck
      {
        OFFSET -0.212763 7.092621 -0.531882
        CHANNELS 3 Zrotation Xrotation Yrotation
        JOINT Head
        {
          OFFSET -3.685071 10.465417 -1.288681
          CHANNELS 3 Zrotation Xrotation Yrotation
          End Site
          {
            OFFSET 0 0 0
          }
        }
      }
      JOINT ShoulderLeft
      {
        OFFSET -12.732653 -2.306870 10.295047
        CHANNELS 3 Zrotation Xrotation Yrotation
        JOINT ElbowLeft
        {
          OFFSET -1.144233 -26.656536 4.364482
          CHANNELS 3 Zrotation Xrotation Yrotation
          JOINT WristLeft
          {
            OFFSET -2.670064 -22.231873 -5.753053
            CHANNELS 3 Zrotation Xrotation Yrotation
            JOINT HandLeft
            {
              OFFSET 0.202119 -3.862238 -1.697494
              CHANNELS 3 Zrotation Xrotation Yrotation
              JOINT HandTipLeft
              {
                OFFSET 0.638783 -6.127975 -2.549782
                CHANNELS 3 Zrotation Xrotation Yrotation
                End Site
                {
                  OFFSET 0 0 0
                }
              }
              JOINT ThumbLeft
              {
                OFFSET 1.127515 1.243352 -5.269672
                CHANNELS 3 Zrotation Xrotation Yrotation
                End Site
                {
                  OFFSET 0 0 0
                }
              }
            }
          }
        }
      }
      JOINT ShoulderRight
      {
        OFFSET 10.828467 -0.864274 -10.646590
        CHANNELS 3 Zrotation Xrotation Yrotation
        JOINT ElbowRight
        {
          OFFSET 6.788850 -24.300390 -2.965471
          CHANNELS 3 Zrotation Xrotation Yrotation
          JOINT WristRight
          {
            OFFSET -1.909159 -19.611728 -5.152211
            CHANNELS 3 Zrotation Xrotation Yrotation
            JOINT HandRight
            {
              OFFSET -2.099150 -4.000093 -0.154237
              CHANNELS 3 Zrotation Xrotation Yrotation
              JOINT HandTipRight
              {
                OFFSET -0.609343 -7.975040 -1.087995
                CHANNELS 3 Zrotation Xrotation Yrotation
                End Site
                {
                  OFFSET 0 0 0
                }
              }
              JOINT ThumbRight
              {
                OFFSET -3.531820 1.500960 0.279754
                CHANNELS 3 Zrotation Xrotation Yrotation
                End Site
                {
                  OFFSET 0 0 0
                }
              }
            }
          }
        }
      }
    }
  }
  JOINT HipLeft
  {
    OFFSET -5.937777 0.726092 0.411419
    CHANNELS 3 Zrotation Xrotation Yrotation
    JOINT KneeLeft
    {
      OFFSET 1.184043 -27.117070 4.683239
      CHANNELS 3 Zrotation Xrotation Yrotation
      JOINT AnkleLeft
      {
        OFFSET 3.029341 -35.271171 9.074623
        CHANNELS 3 Zrotation Xrotation Yrotation
        JOINT FootLeft
        {
          OFFSET -3.734623 -7.552967 1.976327
          CHANNELS 3 Zrotation Xrotation Yrotation
          End Site
          {
            OFFSET 0 0 0
          }
        }
      }
    }
  }
  JOINT HipRight
  {
    OFFSET 3.476651 1.727699 -6.400028
    CHANNELS 3 Zrotation Xrotation Yrotation
    JOINT KneeRight
    {
      OFFSET 11.076708 -26.888299 -4.019255
      CHANNELS 3 Zrotation Xrotation Yrotation
      JOINT AnkleRight
      {
        OFFSET 10.378372 -34.291252 2.864794
        CHANNELS 3 Zrotation Xrotation Yrotation
        JOINT FootRight
        {
          OFFSET -2.064960 -6.488508 -6.707236
          CHANNELS 3 Zrotation Xrotation Yrotation
          End Site
          {
            OFFSET 0 0 0
          }
        }
      }
    }
  }
}
MOTION
Frames: 5
Frame Time: 0.033333
120.752880 69.463544 294.994507 -1.193182 0.403596 32.988451 -0.109193 0.226724 -33.023679 -0.050350 0.060112 -0.050834 -8.705300 -3.075189 -2.422322 0.000000 0.000000 0.000000 -1.595237 -2.652371 -0.397838 4.626855 1.104135 0.019724 -7.204137 -6.259624 2.216873 13.167139 8.527877 -6.219303 0.000000 0.000000 0.000000 0.000000 0.000000 0.000000 -0.393239 -2.481713 -0.253435 -0.222777 3.227542 0.773030 10.865481 -6.731967 2.825113 -9.418285 13.606537 -2.459084 0.000000 0.000000 0.000000 0.000000 0.000000 0.000000 0.781189 -0.988106 -32.977512 -0.000000 0.000000 0.000000 -5.495074 8.668172 -5.292002 0.000000 0.000000 0.000000 -1.168144 -1.190981 -33.296100 2.005515 1.865579 0.481653 -1.288428 1.431543 -0.051663 0.000000 0.000000 0.000000
121.088452 69.538342 294.808773 -1.808611 0.408102 31.314799 -0.186211 0.367312 -31.369948 -0.045981 0.075033 -0.078910 -11.921023 -3.814308 -3.376184 0.000000 0.000000 0.000000 -2.956950 -3.560335 -0.753020 7.468759 1.650394 0.046243 -9.868508 -4.079642 3.420355 16.359636 4.232422 -7.656155 0.000000 0.000000 0.000000 0.000000 0.000000 0.000000 -0.296412 -2.893260 -0.230078 -0.028423 3.922300 0.884661 11.824191 -6.527830 2.462577 -10.832230 15.085577 -2.022033 0.000000 0.000000 0.000000 0.000000 0.000000 0.000000 0.480173 -1.289416 -31.457666 0.727168 0.445832 0.142281 -6.486249 22.357408 -11.852438 0.000000 0.000000 0.000000 -1.310652 -1.152750 -31.521699 2.325268 1.264890 0.146332 -0.848075 1.978697 0.256364 0.000000 0.000000 0.000000
121.461085 69.613111 294.612480 -2.590673 0.391176 29.904030 -0.309327 0.549982 -29.984357 -0.100298 0.103011 -0.119902 -14.332978 -4.397277 -4.206569 0.000000 0.000000 0.000000 -4.489598 -4.770733 -1.222902 10.765859 2.588124 0.015285 -15.604528 0.022960 6.337399 17.083966 -1.577148 -7.524579 0.000000 0.000000 0.000000 0.000000 0.000000 0.000000 0.321143 -3.426596 -0.243657 0.217284 4.667600 0.979480 10.458749 -5.580201 1.654356 -10.437237 15.204193 -1.358257 0.000000 0.000000 0.000000 0.000000 0.000000 0.000000 0.579689 -1.372493 -30.169238 1.401626 0.516157 0.258366 -6.083589 33.263094 -17.476778 0.000000 0.000000 0.000000 -1.406352 -1.222309 -30.039466 3.198147 1.374397 0.049010 -0.997873 1.863263 0.445996 0.000000 0.000000 0.000000
121.749096 69.618480 294.354855 -3.419040 0.518708 28.403402 -0.178552 0.446313 -28.496442 -0.062338 0.105391 -0.141460 -19.213757 -4.966485 -5.565349 0.000000 0.000000 0.000000 -6.389741 -5.087682 -1.733244 13.666199 3.270398 0.093905 -15.722923 -0.124689 6.297855 16.341619 -3.286342 -7.376247 0.000000 0.000000 0.000000 0.000000 0.000000 0.000000 0.493761 -3.828115 -0.250779 0.883510 5.477262 0.887699 8.536234 -8.168238 3.014892 -10.529888 20.645906 -1.808679 0.000000 0.000000 0.000000 0.000000 0.000000 0.000000 0.833096 -1.841149 -28.747140 2.419209 0.133585 0.433871 -5.641347 41.000677 -21.747891 0.000000 0.000000 0.000000 -1.273968 -1.588457 -28.514296 3.782532 1.487604 -0.001856 -0.998992 1.854204 0.449934 0.000000 0.000000 0.000000
121.912238 69.573278 294.081759 -4.279221 0.736247 27.169500 -0.426524 0.438772 -27.288299 -0.289209 0.142701 -0.199074 -23.780104 -5.278346 -6.913730 0.000000 0.000000 0.000000 -7.881910 -4.865954 -2.232341 16.331905 3.473369 0.468634 -19.393460 1.264545 8.222502 16.541462 -8.384440 -7.875571 0.000000 0.000000 0.000000 0.000000 0.000000 0.000000 1.464005 -4.323066 -0.235489 1.990663 5.873062 0.677397 5.018680 -9.304855 3.655028 -9.419557 24.304850 -1.861658 0.000000 0.000000 0.000000 0.000000 0.000000 0.000000 1.286102 -2.529935 -27.543319 2.664598 -0.019899 0.453444 -4.460863 45.068591 -24.272598 0.000000 0.000000 0.000000 -0.813638 -2.197944 -27.301891 3.997386 1.594710 0.003504 -1.013626 1.670050 0.521734 0.000000 0.000000 0.000000
